<svg width="190" height="190" viewBox="0 0 190 190" fill="none" xmlns="http://www.w3.org/2000/svg">
<rect x="145" y="100" width="50" height="10" rx="5" transform="rotate(-180 145 100)" fill="black"/>
<rect x="95" y="100" width="50" height="10" rx="5" transform="rotate(-180 95 100)" fill="black"/>
<path d="M95 45C97.7614 45 100 47.2386 100 50L100 90C100 92.7614 97.7614 95 95 95C92.2386 95 90 92.7614 90 90L90 50C90 47.2386 92.2386 45 95 45Z" fill="black"/>
<rect x="100" y="95" width="50" height="10" rx="5" transform="rotate(90 100 95)" fill="black"/>
<path d="M107 94.5C107 101.404 101.404 107 94.5 107C87.5964 107 82 101.404 82 94.5C82 87.5964 87.5964 82 94.5 82C101.404 82 107 87.5964 107 94.5Z" fill="black"/>
<path d="M126.691 116.783L119.73 138H114.123L123.633 112.406H127.201L126.691 116.783ZM132.475 138L125.496 116.783L124.934 112.406H128.537L138.1 138H132.475ZM132.158 128.473V132.604H118.641V128.473H132.158Z" fill="black"/>
</svg>
