<?xml version="1.0" encoding="iso-8859-1"?>
<!-- Generator: Adobe Illustrator 18.0.0, SVG Export Plug-In . SVG Version: 6.00 Build 0)  -->
<!DOCTYPE svg PUBLIC "-//W3C//DTD SVG 1.1//EN" "http://www.w3.org/Graphics/SVG/1.1/DTD/svg11.dtd">
<svg version="1.1" id="Capa_1" xmlns="http://www.w3.org/2000/svg" xmlns:xlink="http://www.w3.org/1999/xlink" x="0px" y="0px"
	 viewBox="0 0 450 450" style="enable-background:new 0 0 450 450;" xml:space="preserve">
<path id="XMLID_838_" d="M327.697,49.521V0h-30v36.644c-19.379-6.448-40.091-9.951-61.608-9.951
	c-103.663,0-188.731,81.076-195.16,183.146H18.346v30h22.976c8.92,99.627,92.858,177.984,194.766,177.984
	c21.517,0,42.229-3.502,61.608-9.951V450h30v-55.006c61.791-32.903,103.957-97.983,103.957-172.737S389.487,82.423,327.697,49.521z
	 M236.089,56.692c13.632,0,26.88,1.668,39.563,4.79l-81.305,81.305V120h-30v89.838H70.988
	C77.36,124.324,148.973,56.692,236.089,56.692z M305.534,372.533l-44.161-41.883h15.66v-30h-48.687c-8.284,0-15,6.716-15,15v48.686
	h30V354.9l30.205,28.647c-12.042,2.796-24.582,4.276-37.462,4.276c-85.355,0-155.824-64.926-164.631-147.984h92.889V330h30V185.213
	l112.58-112.58c55.951,26.596,94.727,83.664,94.727,149.624C401.654,288.763,362.232,346.227,305.534,372.533z"/>
<g>
</g>
<g>
</g>
<g>
</g>
<g>
</g>
<g>
</g>
<g>
</g>
<g>
</g>
<g>
</g>
<g>
</g>
<g>
</g>
<g>
</g>
<g>
</g>
<g>
</g>
<g>
</g>
<g>
</g>
</svg>
